<svg width="416" height="97" viewBox="0 0 416 97" fill="none" xmlns="http://www.w3.org/2000/svg">
<g clip-path="url('#clip0_11_2')">
<path d="M57.2012 90.7476C50.9433 91.6958 44.5754 91.98 37.988 92.7371L17.8957 41.9641V94.9162C11.6378 95.4844 5.92881 96.2422 0 97V0H16.6888L39.5249 55.0369V0H57.2012V90.7476ZM91.7857 35.5225C98.5932 35.5225 109.023 35.2382 115.281 35.2382V50.3941C107.486 50.3941 98.3734 50.3941 91.7857 50.6784V73.2237C102.106 72.6555 112.427 71.897 122.856 71.6128V86.1998L74.2186 89.516V0H122.856V15.1563H91.7857V35.5225ZM188.182 15.1566H169.957V84.8753C164.028 84.8753 158.1 84.8753 152.391 85.0642V15.1566H134.166V0H188.183L188.182 15.1566ZM216.728 34.4808H240.773V49.6367H216.728V84.0228H199.489V0H248.568V15.1563H216.728V34.4808ZM277.113 70.7607C287.105 70.9496 297.205 71.6138 306.977 72.0867V87.0537C291.277 86.2005 275.576 85.3491 259.547 85.0642V0H277.113V70.7607ZM321.798 88.0957C327.398 88.3803 333.326 88.6646 339.036 89.2321V0H321.798V88.0957ZM416 0L393.712 46.132L416 97C409.412 96.2422 402.824 95.2001 396.237 94.2527L383.611 66.2143L370.767 91.98C364.398 91.0319 358.25 90.7476 351.883 89.9899L374.499 45.5631L354.078 0H372.961L384.489 25.4815L396.786 0L416 0Z" fill="#E50914"></path>
</g>
<defs>
<clipPath id="clip0_11_2">
<rect width="416" height="97" fill="white"></rect>
</clipPath>
</defs>
</svg>
