<svg width="180" height="42" viewBox="0 0 180 42" fill="none" xmlns="http://www.w3.org/2000/svg">
<g clip-path="url('#clip0_11_2')">
<path d="M24.7505 39.2928C22.0428 39.7033 19.2874 39.8264 16.4371 40.1542L7.74334 18.17V41.0977C5.03561 41.3438 2.56535 41.6719 0 42V0H7.22109L17.1021 23.8304V0H24.7505V39.2928ZM39.715 15.3809C42.6605 15.3809 47.1735 15.2578 49.8813 15.2578V21.8201C46.5082 21.8201 42.5654 21.8201 39.715 21.9432V31.7051C44.1807 31.4591 48.6462 31.1307 53.1591 31.0076V37.3236L32.1138 38.7595V0H53.1591V6.56251H39.715V15.3809ZM81.425 6.56266H73.5391V36.7501C70.9738 36.7501 68.4084 36.7501 65.9385 36.8319V6.56266H58.0526V0H81.4254L81.425 6.56266ZM93.7765 14.9298H104.18V21.4922H93.7765V36.381H86.3176V0H107.553V6.56251H93.7765V14.9298ZM119.905 30.6386C124.228 30.7205 128.598 31.008 132.826 31.2128V37.6933C126.033 37.3239 119.24 36.9553 112.304 36.8319V0H119.905V30.6386ZM139.24 38.1445C141.662 38.2678 144.228 38.3909 146.698 38.6366V0H139.24V38.1445ZM180 0L170.356 19.9747L180 42C177.149 41.6719 174.299 41.2207 171.449 40.8105L165.986 28.6701L160.428 39.8264C157.672 39.4159 155.012 39.2928 152.257 38.9647L162.043 19.7284L153.207 0H161.377L166.366 11.0332L171.686 0L180 0Z" fill="#E50914"></path>
</g>
<defs>
<clipPath id="clip0_11_2">
<rect width="180" height="42" fill="white"></rect>
</clipPath>
</defs>
</svg>
